<svg 
    xmlns="http://www.w3.org/2000/svg" 
    xmlns:xlink="http://www.w3.org/1999/xlink" 
    viewBox="0 0 64 64" 
    width="200" height="200">
    
    <!-- URL bar -->
    <rect x="5" y="20" rx="10" ry="10" width="54" height="12" fill="#e0e0e0"/>
    <rect x="10" y="24" width="40" height="4" fill="#fff"/>
    
    <!-- Shorten Button -->
    <rect x="46" y="21" width="10" height="10" fill="#76c7c0" rx="2" ry="2"/>
    <text x="51" y="28" fill="#fff" font-size="6" font-family="Arial" text-anchor="middle" alignment-baseline="middle">
        Go
    </text>
    
    <!-- Chain Link (representing shortening of a URL) -->
    <g transform="translate(0, 20)">
        <path 
            d="M32,22a10,10,0,0,1-7.07-2.93l-4.95-4.95a10,10,0,0,1,14.14-14.14l3.54,3.54-1.41,1.41-3.54-3.54a8,8,0,0,0-11.32,11.32l4.95,4.95A8,8,0,0,0,36.95,24.93l3.54-3.54,1.41,1.41-3.54,3.54A10,10,0,0,1,32,22Z" 
            fill="#76c7c0"/>
        
        <path 
            d="M38,30a10,10,0,0,1-7.07-2.93l-3.54-3.54,1.41-1.41,3.54,3.54A8,8,0,0,0,42.95,22.93l4.95-4.95A8,8,0,0,0,36.95,6.66l-4.95,4.95A8,8,0,0,0,26.69,24.93l3.54,3.54,1.41-1.41-3.54-3.54a10,10,0,0,1,7.07-17.07l4.95,4.95A10,10,0,0,1,38,30Z" 
            fill="#76c7c0"/>
    </g>
</svg>
